0
SECTION
2
HEADER
9
$INSUNITS
70
4
9
$ACADVER
1
AC1014
9
$HANDSEED
5
FFFF
0
ENDSEC
0
SECTION
2
TABLES
0
TABLE
2
VPORT
5
8
100
AcDbSymbolTable
0
ENDTAB
0
TABLE
2
LTYPE
5
5
100
AcDbSymbolTable
0
LTYPE
5
14
100
AcDbSymbolTableRecord
100
AcDbLinetypeTableRecord
2
BYBLOCK
70
0
0
LTYPE
5
15
100
AcDbSymbolTableRecord
100
AcDbLinetypeTableRecord
2
BYLAYER
70
0
0
LTYPE
5
16
100
AcDbSymbolTableRecord
100
AcDbLinetypeTableRecord
2
DASHED
70
0
3
Dashed __ __ __ __ __ __ __ __ __ __ __ __ __ _
72
65
73
2
40
0.75
49
0.5
74
0
49
-0.25
74
0
0
ENDTAB
0
TABLE
2
LAYER
5
2
100
AcDbSymbolTable
70
2
0
LAYER
5
50
100
AcDbSymbolTableRecord
100
AcDbLayerTableRecord
2
0
70
0
62
7
6
CONTINUOUS
0
ENDTAB
0
TABLE
2
STYLE
5
3
100
AcDbSymbolTable
70
1
0
STYLE
5
11
100
AcDbSymbolTableRecord
100
AcDbTextStyleTableRecord
2
STANDARD
70
0
0
ENDTAB
0
TABLE
2
VIEW
5
6
100
AcDbSymbolTable
70
0
0
ENDTAB
0
TABLE
2
UCS
5
7
100
AcDbSymbolTable
70
0
0
ENDTAB
0
TABLE
2
APPID
5
9
100
AcDbSymbolTable
70
2
0
APPID
5
12
100
AcDbSymbolTableRecord
100
AcDbRegAppTableRecord
2
ACAD
70
0
0
ENDTAB
0
TABLE
2
DIMSTYLE
5
A
100
AcDbSymbolTable
70
1
0
ENDTAB
0
TABLE
2
BLOCK_RECORD
5
1
100
AcDbSymbolTable
70
1
0
BLOCK_RECORD
5
1F
100
AcDbSymbolTableRecord
100
AcDbBlockTableRecord
2
*MODEL_SPACE
0
BLOCK_RECORD
5
1B
100
AcDbSymbolTableRecord
100
AcDbBlockTableRecord
2
*PAPER_SPACE
0
ENDTAB
0
ENDSEC
0
SECTION
2
BLOCKS
0
BLOCK
5
20
100
AcDbEntity
100
AcDbBlockBegin
2
*MODEL_SPACE
0
ENDBLK
5
21
100
AcDbEntity
100
AcDbBlockEnd
0
BLOCK
5
1C
100
AcDbEntity
100
AcDbBlockBegin
2
*PAPER_SPACE
0
ENDBLK
5
1D
100
AcDbEntity
100
AcDbBlockEnd
0
ENDSEC
0
SECTION
2
ENTITIES
0
LWPOLYLINE
5
100
100
AcDbEntity
8
0
100
AcDbPolyline
90
24
70
1
43
0.0
10
0
20
0
10
160
20
0
10
160
20
-45.422444547940756
42
-0.18425608534844087
10
156.9512937450902
20
-53.414586957151784
10
101.31125023938182
20
-115.73209181482113
42
0.1842560853484414
10
97.500367420744567
20
-125.72226982633492
10
97.500367420744567
20
-190.00032551126085
10
97.499779536753422
20
-198.00047247955828
42
-0.41419203952799338
10
95.499779542153334
20
-200.00032551126083
10
89.999632579255433
20
-200.00032551126083
42
-0.41421356237309503
10
87.999632579255433
20
-198.00032551126083
10
87.999632579255433
20
-192.00032551126083
42
0.41421356237309503
10
85.999632579255447
20
-190.00032551126083
10
73.999632579255433
20
-190.00032551126083
42
0.41421356237309503
10
71.999632579255433
20
-192.00032551126083
10
71.999632579255433
20
-198.00032551126083
42
-0.41421356237309503
10
69.999632579255433
20
-200.00032551126083
10
64.499632579255433
20
-200.00032551126083
42
-0.41421356237309631
10
62.499632579255433
20
-198.00032551126083
10
62.499632579255433
20
-190.00032551126083
10
62.499632579255433
20
-125.72226982633484
42
0.18425608534844734
10
58.688749760618151
20
-115.7320918148211
10
3.0487062549098272
20
-53.414586957151791
42
-0.18425608534844318
10
-2.2204460492503131e-15
20
-45.422444547940771
0
CIRCLE
5
101
100
AcDbEntity
8
0
100
AcDbCircle
10
67.249632579255433
20
-195.00032551126083
30
0
40
1.5750000000000068
210
0
220
0
230
1
0
CIRCLE
5
102
100
AcDbEntity
8
0
100
AcDbCircle
10
92.749816289627717
20
-195.00016417124073
30
0
40
1.5749999999999931
210
0
220
0
230
1
0
CIRCLE
5
103
100
AcDbEntity
8
0
100
AcDbCircle
10
80
20
-170.0000025331974
30
0
40
2.075000000000002
210
0
220
0
230
1
0
CIRCLE
5
104
100
AcDbEntity
8
0
100
AcDbCircle
10
80.000001192092896
20
-132.00000253319786
30
0
40
2.075000000000002
210
0
220
0
230
1
0
CIRCLE
5
105
100
AcDbEntity
8
0
100
AcDbCircle
10
3.0000000447034836
20
-33.000000491738319
30
0
40
1.0749999999999997
210
0
220
0
230
1
0
CIRCLE
5
106
100
AcDbEntity
8
0
100
AcDbCircle
10
3.0000000447034836
20
-17.00000025331974
30
0
40
1.0749999999999995
210
0
220
0
230
1
0
CIRCLE
5
107
100
AcDbEntity
8
0
100
AcDbCircle
10
156.99999995529652
20
-33.000000491738319
30
0
40
1.0749999999999997
210
0
220
0
230
1
0
CIRCLE
5
108
100
AcDbEntity
8
0
100
AcDbCircle
10
156.99999995529652
20
-17.00000025331974
30
0
40
1.0749999999999995
210
0
220
0
230
1
0
LWPOLYLINE
5
109
100
AcDbEntity
8
0
100
AcDbPolyline
90
8
70
1
43
0.0
10
103.09405980415374
20
-107.87957256622768
10
101.45298928422052
20
-106.41434645787231
42
0.41421356237311141
10
100.18223157264796
20
-106.48628280806327
10
94.720934259687084
20
-112.60300020054154
42
0.41421356237309076
10
94.792870609878008
20
-113.87375791211414
10
96.43394112981116
20
-115.33898402046945
42
0.41421356237302975
10
97.704698841383802
20
-115.26704767027854
10
103.16599615434467
20
-109.15033027780028
42
0.41421356237309076
0
LWPOLYLINE
5
110
100
AcDbEntity
8
0
100
AcDbPolyline
90
8
70
1
43
0.0
10
59.817768427352043
20
-106.48628280806327
10
65.27906574031293
20
-112.60300020054154
42
-0.41421356237309076
10
65.207129390121992
20
-113.87375791211414
10
63.566058870188826
20
-115.33898402046945
42
-0.41421356237302975
10
62.295301158616198
20
-115.26704767027854
10
56.834003845655332
20
-109.15033027780028
42
-0.41421356237309076
10
56.905940195846263
20
-107.87957256622768
10
58.547010715779479
20
-106.41434645787231
42
-0.41421356237311141
0
ENDSEC
0
SECTION
2
OBJECTS
0
DICTIONARY
5
C
100
AcDbDictionary
3
ACAD_GROUP
350
D
3
ACAD_MLINESTYLE
350
17
0
DICTIONARY
5
D
100
AcDbDictionary
0
DICTIONARY
5
1A
330
C
100
AcDbDictionary
0
DICTIONARY
5
17
100
AcDbDictionary
0
ENDSEC
0
EOF
